<?xml version="1.0" standalone="no"?>
<!DOCTYPE svg PUBLIC "-//W3C//DTD SVG 20010904//EN"
 "http://www.w3.org/TR/2001/REC-SVG-20010904/DTD/svg10.dtd">
<svg version="1.0" xmlns="http://www.w3.org/2000/svg"
 width="512.000000pt" height="512.000000pt" viewBox="0 0 512.000000 512.000000"
 preserveAspectRatio="xMidYMid meet">

<g transform="translate(0.000000,512.000000) scale(0.100000,-0.100000)"
fill="#000000" stroke="none">
<path d="M4207 4209 l-247 -241 0 108 0 108 -258 -254 c-141 -140 -470 -464
-731 -720 -487 -478 -510 -505 -511 -580 0 -78 82 -160 160 -160 19 0 53 9 75
19 27 13 271 250 765 745 l725 726 215 0 215 0 245 245 245 245 -326 0 -325 0
-247 -241z"/>
<path d="M3198 2503 c-5 -75 -22 -146 -52 -213 -5 -13 47 -35 276 -117 156
-56 290 -103 297 -105 10 -2 22 17 37 57 31 84 67 236 57 245 -7 6 -595 220
-606 220 -2 0 -7 -39 -9 -87z"/>
</g>
</svg>
